<svg id="visual" viewBox="0 0 1920 200" width="1920" height="200" xmlns="http://www.w3.org/2000/svg" xmlns:xlink="http://www.w3.org/1999/xlink" version="1.1"><path d="M0 129L35.5 130.2C71 131.3 142 133.7 213.2 127.7C284.3 121.7 355.7 107.3 426.8 93.8C498 80.3 569 67.7 640 74.7C711 81.7 782 108.3 853.2 109.2C924.3 110 995.7 85 1066.8 85.3C1138 85.7 1209 111.3 1280 122.8C1351 134.3 1422 131.7 1493.2 125.5C1564.3 119.3 1635.7 109.7 1706.8 106.8C1778 104 1849 108 1884.5 110L1920 112L1920 0L1884.5 0C1849 0 1778 0 1706.8 0C1635.7 0 1564.3 0 1493.2 0C1422 0 1351 0 1280 0C1209 0 1138 0 1066.8 0C995.7 0 924.3 0 853.2 0C782 0 711 0 640 0C569 0 498 0 426.8 0C355.7 0 284.3 0 213.2 0C142 0 71 0 35.5 0L0 0Z" fill="#1c492e" stroke-linecap="round" stroke-linejoin="miter"></path></svg>