<svg id="visual" viewBox="0 0 1920 200" width="1920" height="200" xmlns="http://www.w3.org/2000/svg" xmlns:xlink="http://www.w3.org/1999/xlink" version="1.1"><path d="M0 82L18.8 76.2C37.7 70.3 75.3 58.7 113 51C150.7 43.3 188.3 39.7 226 43.7C263.7 47.7 301.3 59.3 339 65.5C376.7 71.7 414.3 72.3 452 64C489.7 55.7 527.3 38.3 565 34.3C602.7 30.3 640.3 39.7 678 41.8C715.7 44 753.3 39 791 35.2C828.7 31.3 866.3 28.7 903.8 32.5C941.3 36.3 978.7 46.7 1016.2 56C1053.7 65.3 1091.3 73.7 1129 70.8C1166.7 68 1204.3 54 1242 54.2C1279.7 54.3 1317.3 68.7 1355 71C1392.7 73.3 1430.3 63.7 1468 52.7C1505.7 41.7 1543.3 29.3 1581 33.8C1618.7 38.3 1656.3 59.7 1694 62.7C1731.7 65.7 1769.3 50.3 1807 42.2C1844.7 34 1882.3 33 1901.2 32.5L1920 32L1920 201L1901.2 201C1882.3 201 1844.7 201 1807 201C1769.3 201 1731.7 201 1694 201C1656.3 201 1618.7 201 1581 201C1543.3 201 1505.7 201 1468 201C1430.3 201 1392.7 201 1355 201C1317.3 201 1279.7 201 1242 201C1204.3 201 1166.7 201 1129 201C1091.3 201 1053.7 201 1016.2 201C978.7 201 941.3 201 903.8 201C866.3 201 828.7 201 791 201C753.3 201 715.7 201 678 201C640.3 201 602.7 201 565 201C527.3 201 489.7 201 452 201C414.3 201 376.7 201 339 201C301.3 201 263.7 201 226 201C188.3 201 150.7 201 113 201C75.3 201 37.7 201 18.8 201L0 201Z" fill="#2bc43d"></path><path d="M0 108L18.8 103.8C37.7 99.7 75.3 91.3 113 88.2C150.7 85 188.3 87 226 84.8C263.7 82.7 301.3 76.3 339 77.8C376.7 79.3 414.3 88.7 452 93.5C489.7 98.3 527.3 98.7 565 94.3C602.7 90 640.3 81 678 78C715.7 75 753.3 78 791 74.7C828.7 71.3 866.3 61.7 903.8 61C941.3 60.3 978.7 68.7 1016.2 69.2C1053.7 69.7 1091.3 62.3 1129 56.5C1166.7 50.7 1204.3 46.3 1242 44.3C1279.7 42.3 1317.3 42.7 1355 51.7C1392.7 60.7 1430.3 78.3 1468 86.8C1505.7 95.3 1543.3 94.7 1581 95.2C1618.7 95.7 1656.3 97.3 1694 93.5C1731.7 89.7 1769.3 80.3 1807 72.7C1844.7 65 1882.3 59 1901.2 56L1920 53L1920 201L1901.2 201C1882.3 201 1844.7 201 1807 201C1769.3 201 1731.7 201 1694 201C1656.3 201 1618.7 201 1581 201C1543.3 201 1505.7 201 1468 201C1430.3 201 1392.7 201 1355 201C1317.3 201 1279.7 201 1242 201C1204.3 201 1166.7 201 1129 201C1091.3 201 1053.7 201 1016.2 201C978.7 201 941.3 201 903.8 201C866.3 201 828.7 201 791 201C753.3 201 715.7 201 678 201C640.3 201 602.7 201 565 201C527.3 201 489.7 201 452 201C414.3 201 376.7 201 339 201C301.3 201 263.7 201 226 201C188.3 201 150.7 201 113 201C75.3 201 37.7 201 18.8 201L0 201Z" fill="#1ca43f"></path><path d="M0 125L18.8 121.5C37.7 118 75.3 111 113 104C150.7 97 188.3 90 226 85.5C263.7 81 301.3 79 339 80C376.7 81 414.3 85 452 89.8C489.7 94.7 527.3 100.3 565 99.5C602.7 98.7 640.3 91.3 678 87.5C715.7 83.7 753.3 83.3 791 90.5C828.7 97.7 866.3 112.3 903.8 111.7C941.3 111 978.7 95 1016.2 93.7C1053.7 92.3 1091.3 105.7 1129 106.5C1166.7 107.3 1204.3 95.7 1242 95.5C1279.7 95.3 1317.3 106.7 1355 111.3C1392.7 116 1430.3 114 1468 110.5C1505.7 107 1543.3 102 1581 98C1618.7 94 1656.3 91 1694 94.3C1731.7 97.7 1769.3 107.3 1807 108.2C1844.7 109 1882.3 101 1901.2 97L1920 93L1920 201L1901.2 201C1882.3 201 1844.7 201 1807 201C1769.3 201 1731.7 201 1694 201C1656.3 201 1618.7 201 1581 201C1543.3 201 1505.7 201 1468 201C1430.3 201 1392.7 201 1355 201C1317.3 201 1279.7 201 1242 201C1204.3 201 1166.7 201 1129 201C1091.3 201 1053.7 201 1016.2 201C978.7 201 941.3 201 903.8 201C866.3 201 828.7 201 791 201C753.3 201 715.7 201 678 201C640.3 201 602.7 201 565 201C527.3 201 489.7 201 452 201C414.3 201 376.7 201 339 201C301.3 201 263.7 201 226 201C188.3 201 150.7 201 113 201C75.3 201 37.7 201 18.8 201L0 201Z" fill="#18853d"></path><path d="M0 121L18.8 121.5C37.7 122 75.3 123 113 129.3C150.7 135.7 188.3 147.3 226 150C263.7 152.7 301.3 146.3 339 146.7C376.7 147 414.3 154 452 156.2C489.7 158.3 527.3 155.7 565 153C602.7 150.3 640.3 147.7 678 143.7C715.7 139.7 753.3 134.3 791 128.8C828.7 123.3 866.3 117.7 903.8 123C941.3 128.3 978.7 144.7 1016.2 145.2C1053.7 145.7 1091.3 130.3 1129 123.3C1166.7 116.3 1204.3 117.7 1242 125.8C1279.7 134 1317.3 149 1355 156.3C1392.7 163.7 1430.3 163.3 1468 154.2C1505.7 145 1543.3 127 1581 125.3C1618.7 123.7 1656.3 138.3 1694 143C1731.7 147.7 1769.3 142.3 1807 142.7C1844.7 143 1882.3 149 1901.2 152L1920 155L1920 201L1901.2 201C1882.3 201 1844.7 201 1807 201C1769.3 201 1731.7 201 1694 201C1656.3 201 1618.7 201 1581 201C1543.3 201 1505.7 201 1468 201C1430.3 201 1392.7 201 1355 201C1317.3 201 1279.7 201 1242 201C1204.3 201 1166.7 201 1129 201C1091.3 201 1053.7 201 1016.2 201C978.7 201 941.3 201 903.8 201C866.3 201 828.7 201 791 201C753.3 201 715.7 201 678 201C640.3 201 602.7 201 565 201C527.3 201 489.7 201 452 201C414.3 201 376.7 201 339 201C301.3 201 263.7 201 226 201C188.3 201 150.7 201 113 201C75.3 201 37.7 201 18.8 201L0 201Z" fill="#1a6637"></path><path d="M0 151L18.8 152C37.7 153 75.3 155 113 161.3C150.7 167.7 188.3 178.3 226 179C263.7 179.7 301.3 170.3 339 166.5C376.7 162.7 414.3 164.3 452 164.5C489.7 164.7 527.3 163.3 565 162.7C602.7 162 640.3 162 678 161.8C715.7 161.7 753.3 161.3 791 158.7C828.7 156 866.3 151 903.8 151.8C941.3 152.7 978.7 159.3 1016.2 163.3C1053.7 167.3 1091.3 168.7 1129 164.3C1166.7 160 1204.3 150 1242 150.2C1279.7 150.3 1317.3 160.7 1355 165.8C1392.7 171 1430.3 171 1468 169.5C1505.7 168 1543.3 165 1581 167.2C1618.7 169.3 1656.3 176.7 1694 178.7C1731.7 180.7 1769.3 177.3 1807 172.5C1844.7 167.7 1882.3 161.3 1901.2 158.2L1920 155L1920 201L1901.2 201C1882.3 201 1844.7 201 1807 201C1769.3 201 1731.7 201 1694 201C1656.3 201 1618.7 201 1581 201C1543.3 201 1505.7 201 1468 201C1430.3 201 1392.7 201 1355 201C1317.3 201 1279.7 201 1242 201C1204.3 201 1166.7 201 1129 201C1091.3 201 1053.7 201 1016.2 201C978.7 201 941.3 201 903.8 201C866.3 201 828.7 201 791 201C753.3 201 715.7 201 678 201C640.3 201 602.7 201 565 201C527.3 201 489.7 201 452 201C414.3 201 376.7 201 339 201C301.3 201 263.7 201 226 201C188.3 201 150.7 201 113 201C75.3 201 37.7 201 18.8 201L0 201Z" fill="#1c492e"></path></svg>